<svg width="202" height="151" viewBox="0 0 202 151" fill="none" xmlns="http://www.w3.org/2000/svg">
<path d="M97.3839 79.3419C97.3839 81.4262 97.5346 83.4728 97.8359 85.4817C84.2378 86.3732 71.594 92.0736 61.951 101.717C60.7707 102.897 59.2264 103.487 57.682 103.487C56.1376 103.487 54.5932 102.897 53.413 101.717C51.0524 99.356 51.0524 95.5265 53.413 93.166C65.316 81.2504 80.9858 74.2818 97.8108 73.3652C97.522 75.324 97.3839 77.3078 97.3839 79.3419Z" fill="#2F3E4A"/>
<path d="M126.275 39.7273C120.236 41.6735 114.787 44.9631 110.292 49.2447C84.1376 46.6959 57.0795 55.7236 36.5003 76.2902C35.3201 77.4705 33.7757 78.0606 32.2313 78.0606C30.6869 78.0606 29.1425 77.4705 27.9623 76.2902C25.6018 73.9297 25.6018 70.1001 27.9623 67.7396C55.1459 40.5434 92.3743 31.1893 126.275 39.7273Z" fill="#2F3E4A"/>
<path d="M6.03941 51.856C4.49503 51.856 2.95065 51.2659 1.77039 50.0857C-0.590129 47.7251 -0.590129 43.8956 1.77039 41.5351C28.389 14.9165 63.621 0.175783 100.975 0C101.188 0 101.402 0 101.615 0C138.831 0 173.824 14.5147 200.23 40.9198C202.59 43.2803 202.59 47.1099 200.23 49.4704C197.869 51.8309 194.04 51.8309 191.679 49.4704C141.844 -0.364122 60.4945 -0.0878931 10.321 50.0857C9.14073 51.2659 7.59635 51.856 6.03941 51.856Z" fill="#2F3E4A"/>
<path d="M101.025 150.546C111.982 150.546 120.864 141.664 120.864 130.708C120.864 119.751 111.982 110.869 101.025 110.869C90.069 110.869 81.187 119.751 81.187 130.708C81.187 141.664 90.069 150.546 101.025 150.546Z" fill="#2F3E4A"/>
<path d="M175.683 72.7743C175.344 70.8658 174.854 69.0201 174.239 67.2246C169.204 52.5969 155.304 42.0625 138.982 42.0625C137.588 42.0625 136.194 42.1378 134.838 42.2885C127.794 43.067 121.328 45.8293 116.017 49.9853C108.822 55.6229 103.737 63.8596 102.193 73.264C101.866 75.2353 101.703 77.2694 101.703 79.3411C101.703 81.3877 101.866 83.3967 102.193 85.3554C105.081 103.059 120.487 116.62 138.994 116.62C159.548 116.62 176.273 99.8952 176.273 79.3411C176.26 77.1061 176.072 74.9088 175.683 72.7743ZM142.598 53.5386L142.447 58.6991L141.631 86.4854L141.543 89.6872H136.42L136.219 82.8191L135.428 55.4597L135.378 53.5386H142.598ZM142.949 102.708C142.259 104.164 140.853 105.131 138.982 105.131C136.345 105.131 134.537 103.097 134.537 100.46C134.537 99.1544 134.976 98.0243 135.717 97.1956C136.508 96.3167 137.651 95.7894 138.982 95.7894C141.694 95.7894 143.427 97.7481 143.427 100.46C143.427 101.289 143.263 102.042 142.949 102.708Z" fill="#EB5252"/>
<path d="M143.426 100.462C143.426 101.278 143.263 102.044 142.949 102.709C142.259 104.166 140.852 105.133 138.981 105.133C136.345 105.133 134.537 103.099 134.537 100.462C134.537 99.156 134.976 98.026 135.717 97.1973C136.508 96.3184 137.65 95.791 138.981 95.791C141.694 95.8036 143.426 97.7623 143.426 100.462Z" fill="#2F3E4A"/>
<path d="M142.597 53.54L142.447 58.7131L141.631 86.4868L141.543 89.7012H136.42L136.219 82.8205L135.428 55.4737L135.365 53.54H142.597Z" fill="#2F3E4A"/>
</svg>
